<svg width="321" height="163" viewBox="0 0 321 163" fill="none" xmlns="http://www.w3.org/2000/svg">
<g clip-path="url(#clip0_2966_32132)">
<rect width="320.806" height="163" rx="7.25806" fill="#FDC75B"/>
<ellipse cx="12.3402" cy="142.762" rx="55.8871" ry="42.1175" fill="#FFB946"/>
<ellipse cx="305.563" cy="20.2383" rx="55.8871" ry="42.1175" fill="#FFB946"/>
<path d="M115.473 32.6314C115.473 31.1514 115.733 29.8714 116.253 28.7914C116.773 27.7114 117.52 26.8781 118.493 26.2914C119.48 25.7047 120.653 25.4114 122.013 25.4114C123.36 25.4114 124.52 25.7047 125.493 26.2914C126.48 26.8781 127.24 27.7114 127.773 28.7914C128.307 29.8714 128.573 31.1447 128.573 32.6114C128.573 34.0914 128.307 35.3781 127.773 36.4714C127.24 37.5514 126.48 38.3914 125.493 38.9914C124.52 39.5781 123.36 39.8714 122.013 39.8714C120.653 39.8714 119.487 39.5781 118.513 38.9914C117.54 38.3914 116.787 37.5514 116.253 36.4714C115.733 35.3781 115.473 34.0981 115.473 32.6314ZM117.433 32.6314C117.433 34.3914 117.82 35.7647 118.593 36.7514C119.367 37.7381 120.507 38.2314 122.013 38.2314C123.467 38.2314 124.593 37.7447 125.393 36.7714C126.207 35.7847 126.613 34.4047 126.613 32.6314C126.613 30.8581 126.213 29.4847 125.413 28.5114C124.613 27.5381 123.48 27.0514 122.013 27.0514C120.507 27.0514 119.367 27.5381 118.593 28.5114C117.82 29.4847 117.433 30.8581 117.433 32.6314ZM131.321 39.6914V32.0114C131.321 31.6247 131.307 31.2314 131.281 30.8314C131.254 30.4314 131.214 30.0314 131.161 29.6314H132.921L133.121 31.7914H132.881C133.187 31.0314 133.661 30.4514 134.301 30.0514C134.941 29.6514 135.687 29.4514 136.541 29.4514C137.727 29.4514 138.621 29.7781 139.221 30.4314C139.821 31.0714 140.121 32.0714 140.121 33.4314V39.6914H138.301V33.5314C138.301 32.6114 138.121 31.9514 137.761 31.5514C137.401 31.1381 136.841 30.9314 136.081 30.9314C135.174 30.9314 134.454 31.2047 133.921 31.7514C133.401 32.2981 133.141 33.0381 133.141 33.9714V39.6914H131.321ZM147.578 44.1714C146.698 44.1714 145.891 44.0647 145.158 43.8514C144.425 43.6381 143.765 43.3114 143.178 42.8714L143.658 41.5314C144.071 41.8114 144.478 42.0381 144.878 42.2114C145.278 42.3847 145.691 42.5114 146.118 42.5914C146.558 42.6714 147.011 42.7114 147.478 42.7114C148.465 42.7114 149.205 42.4581 149.698 41.9514C150.191 41.4447 150.438 40.7247 150.438 39.7914V36.9714H150.638C150.425 37.7314 149.985 38.3381 149.318 38.7914C148.665 39.2314 147.891 39.4514 146.998 39.4514C146.091 39.4514 145.298 39.2514 144.618 38.8514C143.951 38.4381 143.431 37.8581 143.058 37.1114C142.685 36.3514 142.498 35.4647 142.498 34.4514C142.498 33.4247 142.685 32.5381 143.058 31.7914C143.431 31.0447 143.951 30.4714 144.618 30.0714C145.298 29.6581 146.091 29.4514 146.998 29.4514C147.891 29.4514 148.665 29.6714 149.318 30.1114C149.971 30.5514 150.405 31.1581 150.618 31.9314L150.438 31.7514L150.618 29.6314H152.378C152.338 30.0314 152.298 30.4314 152.258 30.8314C152.231 31.2314 152.218 31.6247 152.218 32.0114V39.5714C152.218 41.0647 151.825 42.2047 151.038 42.9914C150.265 43.7781 149.111 44.1714 147.578 44.1714ZM147.398 38.0114C148.318 38.0114 149.051 37.6981 149.598 37.0714C150.145 36.4447 150.418 35.5714 150.418 34.4514C150.418 33.3181 150.145 32.4447 149.598 31.8314C149.051 31.2181 148.318 30.9114 147.398 30.9114C146.465 30.9114 145.718 31.2181 145.158 31.8314C144.611 32.4447 144.338 33.3181 144.338 34.4514C144.338 35.5714 144.611 36.4447 145.158 37.0714C145.718 37.6981 146.465 38.0114 147.398 38.0114ZM159.506 39.8714C158.519 39.8714 157.666 39.6647 156.946 39.2514C156.226 38.8247 155.666 38.2247 155.266 37.4514C154.866 36.6647 154.666 35.7314 154.666 34.6514C154.666 33.5847 154.866 32.6647 155.266 31.8914C155.666 31.1047 156.226 30.5047 156.946 30.0914C157.666 29.6647 158.519 29.4514 159.506 29.4514C160.493 29.4514 161.346 29.6647 162.066 30.0914C162.799 30.5047 163.359 31.1047 163.746 31.8914C164.146 32.6647 164.346 33.5847 164.346 34.6514C164.346 35.7314 164.146 36.6647 163.746 37.4514C163.359 38.2247 162.799 38.8247 162.066 39.2514C161.346 39.6647 160.493 39.8714 159.506 39.8714ZM159.506 38.4314C160.413 38.4314 161.139 38.1114 161.686 37.4714C162.233 36.8314 162.506 35.8914 162.506 34.6514C162.506 33.4114 162.233 32.4781 161.686 31.8514C161.139 31.2247 160.413 30.9114 159.506 30.9114C158.586 30.9114 157.853 31.2247 157.306 31.8514C156.773 32.4781 156.506 33.4114 156.506 34.6514C156.506 35.8914 156.773 36.8314 157.306 37.4714C157.853 38.1114 158.586 38.4314 159.506 38.4314ZM166.79 39.6914V29.6314H168.61V39.6914H166.79ZM166.63 27.4314V25.4714H168.79V27.4314H166.63ZM171.653 39.6914V32.0114C171.653 31.6247 171.639 31.2314 171.613 30.8314C171.586 30.4314 171.546 30.0314 171.493 29.6314H173.253L173.453 31.7914H173.213C173.519 31.0314 173.993 30.4514 174.633 30.0514C175.273 29.6514 176.019 29.4514 176.873 29.4514C178.059 29.4514 178.953 29.7781 179.553 30.4314C180.153 31.0714 180.453 32.0714 180.453 33.4314V39.6914H178.633V33.5314C178.633 32.6114 178.453 31.9514 178.093 31.5514C177.733 31.1381 177.173 30.9314 176.413 30.9314C175.506 30.9314 174.786 31.2047 174.253 31.7514C173.733 32.2981 173.473 33.0381 173.473 33.9714V39.6914H171.653ZM187.91 44.1714C187.03 44.1714 186.223 44.0647 185.49 43.8514C184.757 43.6381 184.097 43.3114 183.51 42.8714L183.99 41.5314C184.403 41.8114 184.81 42.0381 185.21 42.2114C185.61 42.3847 186.023 42.5114 186.45 42.5914C186.89 42.6714 187.343 42.7114 187.81 42.7114C188.797 42.7114 189.537 42.4581 190.03 41.9514C190.523 41.4447 190.77 40.7247 190.77 39.7914V36.9714H190.97C190.757 37.7314 190.317 38.3381 189.65 38.7914C188.997 39.2314 188.223 39.4514 187.33 39.4514C186.423 39.4514 185.63 39.2514 184.95 38.8514C184.283 38.4381 183.763 37.8581 183.39 37.1114C183.017 36.3514 182.83 35.4647 182.83 34.4514C182.83 33.4247 183.017 32.5381 183.39 31.7914C183.763 31.0447 184.283 30.4714 184.95 30.0714C185.63 29.6581 186.423 29.4514 187.33 29.4514C188.223 29.4514 188.997 29.6714 189.65 30.1114C190.303 30.5514 190.737 31.1581 190.95 31.9314L190.77 31.7514L190.95 29.6314H192.71C192.67 30.0314 192.63 30.4314 192.59 30.8314C192.563 31.2314 192.55 31.6247 192.55 32.0114V39.5714C192.55 41.0647 192.157 42.2047 191.37 42.9914C190.597 43.7781 189.443 44.1714 187.91 44.1714ZM187.73 38.0114C188.65 38.0114 189.383 37.6981 189.93 37.0714C190.477 36.4447 190.75 35.5714 190.75 34.4514C190.75 33.3181 190.477 32.4447 189.93 31.8314C189.383 31.2181 188.65 30.9114 187.73 30.9114C186.797 30.9114 186.05 31.2181 185.49 31.8314C184.943 32.4447 184.67 33.3181 184.67 34.4514C184.67 35.5714 184.943 36.4447 185.49 37.0714C186.05 37.6981 186.797 38.0114 187.73 38.0114ZM201.072 39.6914V25.5914H206.912C208.418 25.5914 209.578 25.9447 210.392 26.6514C211.218 27.3581 211.632 28.3447 211.632 29.6114C211.632 30.4514 211.445 31.1647 211.072 31.7514C210.698 32.3381 210.172 32.7847 209.492 33.0914C208.825 33.3981 208.045 33.5514 207.152 33.5514L207.492 33.2714H207.972C208.518 33.2714 209.005 33.4114 209.432 33.6914C209.858 33.9581 210.212 34.3981 210.492 35.0114L212.492 39.6914H210.432L208.492 35.0514C208.265 34.4781 207.932 34.1047 207.492 33.9314C207.065 33.7581 206.525 33.6714 205.872 33.6714H202.932V39.6914H201.072ZM202.932 32.2314H206.632C207.658 32.2314 208.438 32.0114 208.972 31.5714C209.518 31.1314 209.792 30.4914 209.792 29.6514C209.792 28.8247 209.518 28.1981 208.972 27.7714C208.438 27.3314 207.658 27.1114 206.632 27.1114H202.932V32.2314ZM219.123 39.8714C217.523 39.8714 216.257 39.4114 215.323 38.4914C214.403 37.5714 213.943 36.3047 213.943 34.6914C213.943 33.6247 214.143 32.7047 214.543 31.9314C214.957 31.1447 215.523 30.5381 216.243 30.1114C216.963 29.6714 217.803 29.4514 218.763 29.4514C219.683 29.4514 220.463 29.6514 221.103 30.0514C221.743 30.4381 222.23 30.9914 222.563 31.7114C222.897 32.4314 223.063 33.2847 223.063 34.2714V34.8714H215.363V33.7914H221.823L221.483 34.0514C221.483 33.0114 221.25 32.2047 220.783 31.6314C220.33 31.0581 219.657 30.7714 218.763 30.7714C217.79 30.7714 217.037 31.1114 216.503 31.7914C215.97 32.4581 215.703 33.3714 215.703 34.5314V34.7114C215.703 35.9381 216.003 36.8647 216.603 37.4914C217.217 38.1181 218.063 38.4314 219.143 38.4314C219.743 38.4314 220.303 38.3447 220.823 38.1714C221.343 37.9981 221.843 37.7114 222.323 37.3114L222.923 38.5714C222.47 38.9847 221.903 39.3047 221.223 39.5314C220.557 39.7581 219.857 39.8714 219.123 39.8714ZM232.682 44.0114V37.3914H232.902C232.689 38.1514 232.249 38.7581 231.582 39.2114C230.929 39.6514 230.162 39.8714 229.282 39.8714C228.402 39.8714 227.629 39.6647 226.962 39.2514C226.295 38.8381 225.775 38.2381 225.402 37.4514C225.029 36.6647 224.842 35.7314 224.842 34.6514C224.842 33.5714 225.029 32.6447 225.402 31.8714C225.775 31.0847 226.295 30.4847 226.962 30.0714C227.629 29.6581 228.402 29.4514 229.282 29.4514C230.175 29.4514 230.949 29.6781 231.602 30.1314C232.269 30.5714 232.709 31.1781 232.922 31.9514H232.682L232.902 29.6314H234.662C234.622 30.0314 234.582 30.4314 234.542 30.8314C234.515 31.2314 234.502 31.6247 234.502 32.0114V44.0114H232.682ZM229.702 38.4314C230.609 38.4314 231.335 38.1114 231.882 37.4714C232.429 36.8314 232.702 35.8914 232.702 34.6514C232.702 33.4114 232.429 32.4781 231.882 31.8514C231.335 31.2247 230.609 30.9114 229.702 30.9114C228.795 30.9114 228.062 31.2247 227.502 31.8514C226.955 32.4781 226.682 33.4114 226.682 34.6514C226.682 35.8914 226.955 36.8314 227.502 37.4714C228.049 38.1114 228.782 38.4314 229.702 38.4314ZM241.131 39.8714C239.918 39.8714 239.005 39.5447 238.391 38.8914C237.791 38.2381 237.491 37.2314 237.491 35.8714V29.6314H239.311V35.8314C239.311 36.7114 239.491 37.3581 239.851 37.7714C240.211 38.1847 240.771 38.3914 241.531 38.3914C242.358 38.3914 243.025 38.1181 243.531 37.5714C244.051 37.0114 244.311 36.2714 244.311 35.3514V29.6314H246.131V39.6914H244.371V37.4714H244.631C244.351 38.2314 243.905 38.8247 243.291 39.2514C242.678 39.6647 241.958 39.8714 241.131 39.8714ZM253.772 39.8714C252.172 39.8714 250.905 39.4114 249.972 38.4914C249.052 37.5714 248.592 36.3047 248.592 34.6914C248.592 33.6247 248.792 32.7047 249.192 31.9314C249.605 31.1447 250.172 30.5381 250.892 30.1114C251.612 29.6714 252.452 29.4514 253.412 29.4514C254.332 29.4514 255.112 29.6514 255.752 30.0514C256.392 30.4381 256.879 30.9914 257.212 31.7114C257.545 32.4314 257.712 33.2847 257.712 34.2714V34.8714H250.012V33.7914H256.472L256.132 34.0514C256.132 33.0114 255.899 32.2047 255.432 31.6314C254.979 31.0581 254.305 30.7714 253.412 30.7714C252.439 30.7714 251.685 31.1114 251.152 31.7914C250.619 32.4581 250.352 33.3714 250.352 34.5314V34.7114C250.352 35.9381 250.652 36.8647 251.252 37.4914C251.865 38.1181 252.712 38.4314 253.792 38.4314C254.392 38.4314 254.952 38.3447 255.472 38.1714C255.992 37.9981 256.492 37.7114 256.972 37.3114L257.572 38.5714C257.119 38.9847 256.552 39.3047 255.872 39.5314C255.205 39.7581 254.505 39.8714 253.772 39.8714ZM263.49 39.8714C262.677 39.8714 261.917 39.7647 261.21 39.5514C260.517 39.3381 259.944 39.0314 259.49 38.6314L260.07 37.3714C260.564 37.7447 261.104 38.0314 261.69 38.2314C262.29 38.4181 262.904 38.5114 263.53 38.5114C264.29 38.5114 264.864 38.3714 265.25 38.0914C265.65 37.8114 265.85 37.4381 265.85 36.9714C265.85 36.5981 265.724 36.2981 265.47 36.0714C265.217 35.8447 264.817 35.6781 264.27 35.5714L262.37 35.1914C261.517 34.9914 260.87 34.6714 260.43 34.2314C260.004 33.7781 259.79 33.1981 259.79 32.4914C259.79 31.9047 259.95 31.3847 260.27 30.9314C260.59 30.4647 261.044 30.1047 261.63 29.8514C262.23 29.5847 262.93 29.4514 263.73 29.4514C264.464 29.4514 265.144 29.5581 265.77 29.7714C266.41 29.9847 266.937 30.2981 267.35 30.7114L266.75 31.9314C266.337 31.5714 265.87 31.2981 265.35 31.1114C264.844 30.9114 264.324 30.8114 263.79 30.8114C263.017 30.8114 262.444 30.9647 262.07 31.2714C261.697 31.5647 261.51 31.9514 261.51 32.4314C261.51 32.7914 261.624 33.0914 261.85 33.3314C262.077 33.5581 262.444 33.7314 262.95 33.8514L264.85 34.2314C265.744 34.4181 266.417 34.7247 266.87 35.1514C267.324 35.5781 267.55 36.1447 267.55 36.8514C267.55 37.4781 267.377 38.0181 267.03 38.4714C266.697 38.9247 266.224 39.2714 265.61 39.5114C265.01 39.7514 264.304 39.8714 263.49 39.8714ZM273.694 39.8714C272.641 39.8714 271.841 39.5847 271.294 39.0114C270.761 38.4247 270.494 37.5447 270.494 36.3714V31.0314H268.534V29.6314H270.494V26.9314L272.314 26.4314V29.6314H275.154V31.0314H272.314V36.2114C272.314 36.9847 272.447 37.5381 272.714 37.8714C272.994 38.1914 273.394 38.3514 273.914 38.3514C274.181 38.3514 274.407 38.3314 274.594 38.2914C274.794 38.2381 274.974 38.1781 275.134 38.1114V39.6114C274.934 39.6914 274.701 39.7514 274.434 39.7914C274.181 39.8447 273.934 39.8714 273.694 39.8714ZM280.463 39.8714C279.65 39.8714 278.89 39.7647 278.183 39.5514C277.49 39.3381 276.916 39.0314 276.463 38.6314L277.043 37.3714C277.536 37.7447 278.076 38.0314 278.663 38.2314C279.263 38.4181 279.876 38.5114 280.503 38.5114C281.263 38.5114 281.836 38.3714 282.223 38.0914C282.623 37.8114 282.823 37.4381 282.823 36.9714C282.823 36.5981 282.696 36.2981 282.443 36.0714C282.19 35.8447 281.79 35.6781 281.243 35.5714L279.343 35.1914C278.49 34.9914 277.843 34.6714 277.403 34.2314C276.976 33.7781 276.763 33.1981 276.763 32.4914C276.763 31.9047 276.923 31.3847 277.243 30.9314C277.563 30.4647 278.016 30.1047 278.603 29.8514C279.203 29.5847 279.903 29.4514 280.703 29.4514C281.436 29.4514 282.116 29.5581 282.743 29.7714C283.383 29.9847 283.91 30.2981 284.323 30.7114L283.723 31.9314C283.31 31.5714 282.843 31.2981 282.323 31.1114C281.816 30.9114 281.296 30.8114 280.763 30.8114C279.99 30.8114 279.416 30.9647 279.043 31.2714C278.67 31.5647 278.483 31.9514 278.483 32.4314C278.483 32.7914 278.596 33.0914 278.823 33.3314C279.05 33.5581 279.416 33.7314 279.923 33.8514L281.823 34.2314C282.716 34.4181 283.39 34.7247 283.843 35.1514C284.296 35.5781 284.523 36.1447 284.523 36.8514C284.523 37.4781 284.35 38.0181 284.003 38.4714C283.67 38.9247 283.196 39.2714 282.583 39.5114C281.983 39.7514 281.276 39.8714 280.463 39.8714Z" fill="white"/>
<path d="M228.229 144.645V139.053H236.695V113.446H239.935L229.066 119.926V113.551L238.629 107.803H243.437V139.053H251.38V144.645H228.229ZM266.671 145.167C264.685 145.167 262.717 144.801 260.766 144.07C258.815 143.303 257.143 142.275 255.749 140.986L257.996 135.97C259.285 137.154 260.679 138.043 262.177 138.635C263.675 139.227 265.19 139.523 266.723 139.523C269.824 139.523 272.193 138.461 273.83 136.335C275.503 134.21 276.339 131.04 276.339 126.825V122.905H276.966C276.722 124.647 276.13 126.163 275.189 127.452C274.248 128.741 273.064 129.734 271.635 130.43C270.242 131.092 268.674 131.423 266.932 131.423C264.807 131.423 262.891 130.918 261.184 129.908C259.512 128.897 258.188 127.504 257.212 125.727C256.272 123.915 255.801 121.877 255.801 119.613C255.801 117.209 256.324 115.084 257.369 113.237C258.449 111.391 259.912 109.945 261.759 108.9C263.605 107.82 265.73 107.28 268.134 107.28C272.803 107.28 276.391 108.883 278.899 112.088C281.443 115.258 282.714 119.752 282.714 125.57C282.714 129.716 282.07 133.252 280.781 136.179C279.526 139.105 277.697 141.335 275.294 142.868C272.89 144.401 270.015 145.167 266.671 145.167ZM268.552 126.093C269.841 126.093 270.974 125.814 271.949 125.257C272.925 124.699 273.691 123.915 274.248 122.905C274.806 121.86 275.085 120.675 275.085 119.352C275.085 117.993 274.806 116.808 274.248 115.798C273.691 114.788 272.925 114.004 271.949 113.446C270.974 112.854 269.841 112.558 268.552 112.558C267.263 112.558 266.131 112.854 265.155 113.446C264.18 114.004 263.414 114.788 262.856 115.798C262.334 116.808 262.072 117.993 262.072 119.352C262.072 120.675 262.334 121.86 262.856 122.905C263.414 123.915 264.18 124.699 265.155 125.257C266.131 125.814 267.263 126.093 268.552 126.093Z" fill="white"/>
<path d="M68.5171 121.672C65.9042 119.594 62.4203 118.172 58.7913 117.625C57.1945 117.297 55.5977 117.078 54.0009 116.968C58.0655 113.358 57.3396 107.889 52.5493 104.825C47.759 101.762 40.5009 102.309 36.4364 105.919C32.3719 109.529 33.0977 114.999 37.888 118.062C38.759 118.609 39.63 119.047 40.5009 119.266V121.672L38.1784 120.031C36.1461 118.5 32.8074 118.5 30.63 120.031C28.5977 121.563 28.4525 123.97 30.4848 125.501L37.1622 131.409C37.4525 132.94 38.1784 134.362 39.1945 135.675C39.9203 136.66 40.9364 137.644 41.9525 138.41V140.489C41.9525 141.145 42.5332 141.582 43.4042 141.582H63.1461C63.8719 141.582 64.5977 141.035 64.5977 140.489V137.644C67.3558 135.128 68.8074 131.956 68.8074 128.783V122.438C68.9525 122.001 68.8074 121.782 68.5171 121.672ZM36.5816 111.389C36.5816 107.779 40.5009 104.935 45.2913 105.044C50.0816 105.044 53.8558 107.998 53.7106 111.608C53.7106 113.577 52.5493 115.327 50.5171 116.531V111.061C50.4429 110.113 49.8904 109.222 48.9727 108.571C48.0551 107.92 46.8418 107.559 45.5816 107.56C42.9687 107.451 40.6461 109.092 40.6461 111.061V116.75C38.1784 115.656 36.7267 113.577 36.5816 111.389ZM66.0493 128.674C66.1945 131.518 64.888 134.253 62.4203 136.441C62.13 136.66 61.8396 136.878 61.8396 137.207V139.504H45.0009V137.972C45.0009 137.644 44.7106 137.316 44.4203 137.097C43.4042 136.441 42.5332 135.675 41.8074 134.691C40.9364 133.597 40.3558 132.284 40.0655 130.971C40.0655 130.752 39.9203 130.533 39.7751 130.315L32.8074 124.079C32.3719 123.751 32.0816 123.313 32.0816 122.766C32.0816 122.329 32.3719 121.782 32.8074 121.454C33.8235 120.797 35.2751 120.797 36.2913 121.454L40.5009 124.626V127.908L43.259 126.814V111.061C43.4042 110.295 44.2751 109.639 45.4364 109.748C46.4525 109.748 47.4687 110.295 47.4687 111.061V123.642L50.3719 124.079V119.047C50.5171 118.938 50.6622 118.938 50.8074 118.828C51.8235 118.828 52.8396 118.938 53.8558 119.047V124.626L56.1784 124.954V119.266L57.9203 119.594C58.6461 119.703 59.3719 119.922 60.0977 120.141V125.611L62.4203 125.939V120.907C63.7267 121.344 64.888 122.001 65.9042 122.766L66.0493 128.674Z" fill="white"/>
</g>
<rect x="0.725806" y="0.725806" width="319.355" height="161.548" rx="6.53226" stroke="#D8D8D8" stroke-width="1.45161"/>
<defs>
<clipPath id="clip0_2966_32132">
<rect width="320.806" height="163" rx="7.25806" fill="white"/>
</clipPath>
</defs>
</svg>
