<svg width="41" height="40" viewBox="0 0 41 40" fill="none" xmlns="http://www.w3.org/2000/svg">
<path d="M40.3218 19.6724C37.7088 17.5939 34.225 16.1717 30.5959 15.6248C28.9992 15.2966 27.4024 15.0778 25.8056 14.9684C29.8701 11.3583 29.1443 5.88852 24.354 2.82543C19.5637 -0.237656 12.3056 0.309324 8.24111 3.91939C4.17659 7.52946 4.9024 12.9993 9.69272 16.0623C10.5637 16.6093 11.4347 17.0469 12.3056 17.2657V19.6724L9.98304 18.0315C7.95078 16.4999 4.61207 16.4999 2.43465 18.0315C0.402396 19.563 0.257235 21.9697 2.28949 23.5013L8.96691 29.4086C9.25724 30.9402 9.98304 32.3623 10.9992 33.6751C11.725 34.6597 12.7411 35.6442 13.7572 36.41V38.4885C13.7572 39.1449 14.3379 39.5825 15.2088 39.5825H34.9508C35.6766 39.5825 36.4024 39.0355 36.4024 38.4885V35.6442C39.1605 33.1281 40.6121 29.9556 40.6121 26.7831V20.4382C40.7572 20.0006 40.6121 19.7818 40.3218 19.6724ZM8.38627 9.38919C8.38627 5.77912 12.3056 2.93483 17.0959 3.04422C21.8863 3.04422 25.6605 5.99791 25.5153 9.60798C25.5153 11.5771 24.354 13.3274 22.3218 14.5308V9.061C22.2476 8.11294 21.6951 7.22217 20.7774 6.57127C19.8597 5.92038 18.6465 5.55869 17.3863 5.56033C14.7734 5.45093 12.4508 7.09187 12.4508 9.061V14.7496C9.98304 13.6556 8.53143 11.5771 8.38627 9.38919ZM37.854 26.6737C37.9992 29.518 36.6927 32.2529 34.225 34.4409C33.9347 34.6597 33.6443 34.8784 33.6443 35.2066V37.5039H16.8056V35.9724C16.8056 35.6442 16.5153 35.316 16.225 35.0972C15.2088 34.4409 14.3379 33.6751 13.6121 32.6905C12.7411 31.5966 12.1605 30.2838 11.8701 28.9711C11.8701 28.7523 11.725 28.5335 11.5798 28.3147L4.61207 22.0791C4.17659 21.7509 3.88627 21.3133 3.88627 20.7664C3.88627 20.3288 4.17659 19.7818 4.61207 19.4536C5.6282 18.7972 7.07982 18.7972 8.09594 19.4536L12.3056 22.6261V25.908L15.0637 24.814V9.061C15.2088 8.29523 16.0798 7.63885 17.2411 7.74825C18.2572 7.74825 19.2734 8.29523 19.2734 9.061V21.6415L22.1766 22.0791V17.0469C22.3218 16.9375 22.4669 16.9375 22.6121 16.8281C23.6282 16.8281 24.6443 16.9375 25.6605 17.0469V22.6261L27.983 22.9543V17.2657L29.725 17.5939C30.4508 17.7033 31.1766 17.9221 31.9024 18.1409V23.6107L34.225 23.9389V18.9066C35.5314 19.3442 36.6927 20.0006 37.7089 20.7664L37.854 26.6737Z" fill="white"/>
</svg>
