<svg width="122" height="122" viewBox="0 0 122 122" fill="none" xmlns="http://www.w3.org/2000/svg">
<circle cx="61" cy="61" r="59.5" stroke="#7F8B94" stroke-width="3"/>
<path d="M96.625 58.3125H59V34.125C58.9986 32.6999 58.4318 31.3336 57.4241 30.3259C56.4164 29.3182 55.0501 28.7514 53.625 28.75H32.125C30.6999 28.7514 29.3336 29.3182 28.3259 30.3259C27.3182 31.3336 26.7514 32.6999 26.75 34.125V58.3125H21.375V63.6875H59V87.875C59.0014 89.3001 59.5682 90.6664 60.5759 91.6741C61.5836 92.6818 62.9499 93.2486 64.375 93.25H85.875C87.3001 93.2486 88.6664 92.6818 89.6741 91.6741C90.6818 90.6664 91.2486 89.3001 91.25 87.875V63.6875H96.625V58.3125ZM32.125 34.125H53.625V58.3125H32.125V34.125ZM85.875 87.875H64.375V63.6875H85.875V87.875Z" fill="#7F8B94"/>
</svg>
