<svg width="321" height="163" viewBox="0 0 321 163" fill="none" xmlns="http://www.w3.org/2000/svg">
<g clip-path="url(#clip0_2966_32116)">
<rect width="320.806" height="163" rx="7.25806" fill="#4A8DFF"/>
<ellipse cx="12.3402" cy="142.762" rx="55.8871" ry="42.1175" fill="#7AABFF"/>
<ellipse cx="305.563" cy="20.2381" rx="55.8871" ry="42.1175" fill="#7AABFF"/>
<path d="M170.8 39.6912L177.04 25.5912H178.66L185 39.6912H183.08L181.34 35.6912L182.14 36.1712H173.56L174.44 35.6912L172.7 39.6912H170.8ZM177.82 27.6712L174.7 35.0712L174.22 34.6512H181.48L181.1 35.0712L177.9 27.6712H177.82ZM186.805 39.6912V24.9712H188.625V39.6912H186.805ZM191.668 39.6912V24.9712H193.488V39.6912H191.668ZM202.005 39.6912V25.5912H207.845C209.352 25.5912 210.512 25.9445 211.325 26.6512C212.152 27.3578 212.565 28.3445 212.565 29.6112C212.565 30.4512 212.378 31.1645 212.005 31.7512C211.632 32.3378 211.105 32.7845 210.425 33.0912C209.758 33.3978 208.978 33.5512 208.085 33.5512L208.425 33.2712H208.905C209.452 33.2712 209.938 33.4112 210.365 33.6912C210.792 33.9578 211.145 34.3978 211.425 35.0112L213.425 39.6912H211.365L209.425 35.0512C209.198 34.4778 208.865 34.1045 208.425 33.9312C207.998 33.7578 207.458 33.6712 206.805 33.6712H203.865V39.6912H202.005ZM203.865 32.2312H207.565C208.592 32.2312 209.372 32.0112 209.905 31.5712C210.452 31.1312 210.725 30.4912 210.725 29.6512C210.725 28.8245 210.452 28.1978 209.905 27.7712C209.372 27.3312 208.592 27.1112 207.565 27.1112H203.865V32.2312ZM220.057 39.8712C218.457 39.8712 217.19 39.4112 216.257 38.4912C215.337 37.5712 214.877 36.3045 214.877 34.6912C214.877 33.6245 215.077 32.7045 215.477 31.9312C215.89 31.1445 216.457 30.5378 217.177 30.1112C217.897 29.6712 218.737 29.4512 219.697 29.4512C220.617 29.4512 221.397 29.6512 222.037 30.0512C222.677 30.4378 223.164 30.9912 223.497 31.7112C223.83 32.4312 223.997 33.2845 223.997 34.2712V34.8712H216.297V33.7912H222.757L222.417 34.0512C222.417 33.0112 222.184 32.2045 221.717 31.6312C221.264 31.0578 220.59 30.7712 219.697 30.7712C218.724 30.7712 217.97 31.1112 217.437 31.7912C216.904 32.4578 216.637 33.3712 216.637 34.5312V34.7112C216.637 35.9378 216.937 36.8645 217.537 37.4912C218.15 38.1178 218.997 38.4312 220.077 38.4312C220.677 38.4312 221.237 38.3445 221.757 38.1712C222.277 37.9978 222.777 37.7112 223.257 37.3112L223.857 38.5712C223.404 38.9845 222.837 39.3045 222.157 39.5312C221.49 39.7578 220.79 39.8712 220.057 39.8712ZM233.615 44.0112V37.3912H233.835C233.622 38.1512 233.182 38.7578 232.515 39.2112C231.862 39.6512 231.095 39.8712 230.215 39.8712C229.335 39.8712 228.562 39.6645 227.895 39.2512C227.229 38.8378 226.709 38.2378 226.335 37.4512C225.962 36.6645 225.775 35.7312 225.775 34.6512C225.775 33.5712 225.962 32.6445 226.335 31.8712C226.709 31.0845 227.229 30.4845 227.895 30.0712C228.562 29.6578 229.335 29.4512 230.215 29.4512C231.109 29.4512 231.882 29.6778 232.535 30.1312C233.202 30.5712 233.642 31.1778 233.855 31.9512H233.615L233.835 29.6312H235.595C235.555 30.0312 235.515 30.4312 235.475 30.8312C235.449 31.2312 235.435 31.6245 235.435 32.0112V44.0112H233.615ZM230.635 38.4312C231.542 38.4312 232.269 38.1112 232.815 37.4712C233.362 36.8312 233.635 35.8912 233.635 34.6512C233.635 33.4112 233.362 32.4778 232.815 31.8512C232.269 31.2245 231.542 30.9112 230.635 30.9112C229.729 30.9112 228.995 31.2245 228.435 31.8512C227.889 32.4778 227.615 33.4112 227.615 34.6512C227.615 35.8912 227.889 36.8312 228.435 37.4712C228.982 38.1112 229.715 38.4312 230.635 38.4312ZM242.065 39.8712C240.852 39.8712 239.938 39.5445 239.325 38.8912C238.725 38.2378 238.425 37.2312 238.425 35.8712V29.6312H240.245V35.8312C240.245 36.7112 240.425 37.3578 240.785 37.7712C241.145 38.1845 241.705 38.3912 242.465 38.3912C243.292 38.3912 243.958 38.1178 244.465 37.5712C244.985 37.0112 245.245 36.2712 245.245 35.3512V29.6312H247.065V39.6912H245.305V37.4712H245.565C245.285 38.2312 244.838 38.8245 244.225 39.2512C243.612 39.6645 242.892 39.8712 242.065 39.8712ZM254.705 39.8712C253.105 39.8712 251.839 39.4112 250.905 38.4912C249.985 37.5712 249.525 36.3045 249.525 34.6912C249.525 33.6245 249.725 32.7045 250.125 31.9312C250.539 31.1445 251.105 30.5378 251.825 30.1112C252.545 29.6712 253.385 29.4512 254.345 29.4512C255.265 29.4512 256.045 29.6512 256.685 30.0512C257.325 30.4378 257.812 30.9912 258.145 31.7112C258.479 32.4312 258.645 33.2845 258.645 34.2712V34.8712H250.945V33.7912H257.405L257.065 34.0512C257.065 33.0112 256.832 32.2045 256.365 31.6312C255.912 31.0578 255.239 30.7712 254.345 30.7712C253.372 30.7712 252.619 31.1112 252.085 31.7912C251.552 32.4578 251.285 33.3712 251.285 34.5312V34.7112C251.285 35.9378 251.585 36.8645 252.185 37.4912C252.799 38.1178 253.645 38.4312 254.725 38.4312C255.325 38.4312 255.885 38.3445 256.405 38.1712C256.925 37.9978 257.425 37.7112 257.905 37.3112L258.505 38.5712C258.052 38.9845 257.485 39.3045 256.805 39.5312C256.139 39.7578 255.439 39.8712 254.705 39.8712ZM264.424 39.8712C263.611 39.8712 262.851 39.7645 262.144 39.5512C261.451 39.3378 260.877 39.0312 260.424 38.6312L261.004 37.3712C261.497 37.7445 262.037 38.0312 262.624 38.2312C263.224 38.4178 263.837 38.5112 264.464 38.5112C265.224 38.5112 265.797 38.3712 266.184 38.0912C266.584 37.8112 266.784 37.4378 266.784 36.9712C266.784 36.5978 266.657 36.2978 266.404 36.0712C266.151 35.8445 265.751 35.6778 265.204 35.5712L263.304 35.1912C262.451 34.9912 261.804 34.6712 261.364 34.2312C260.937 33.7778 260.724 33.1978 260.724 32.4912C260.724 31.9045 260.884 31.3845 261.204 30.9312C261.524 30.4645 261.977 30.1045 262.564 29.8512C263.164 29.5845 263.864 29.4512 264.664 29.4512C265.397 29.4512 266.077 29.5578 266.704 29.7712C267.344 29.9845 267.871 30.2978 268.284 30.7112L267.684 31.9312C267.271 31.5712 266.804 31.2978 266.284 31.1112C265.777 30.9112 265.257 30.8112 264.724 30.8112C263.951 30.8112 263.377 30.9645 263.004 31.2712C262.631 31.5645 262.444 31.9512 262.444 32.4312C262.444 32.7912 262.557 33.0912 262.784 33.3312C263.011 33.5578 263.377 33.7312 263.884 33.8512L265.784 34.2312C266.677 34.4178 267.351 34.7245 267.804 35.1512C268.257 35.5778 268.484 36.1445 268.484 36.8512C268.484 37.4778 268.311 38.0178 267.964 38.4712C267.631 38.9245 267.157 39.2712 266.544 39.5112C265.944 39.7512 265.237 39.8712 264.424 39.8712ZM274.628 39.8712C273.574 39.8712 272.774 39.5845 272.228 39.0112C271.694 38.4245 271.428 37.5445 271.428 36.3712V31.0312H269.468V29.6312H271.428V26.9312L273.248 26.4312V29.6312H276.088V31.0312H273.248V36.2112C273.248 36.9845 273.381 37.5378 273.648 37.8712C273.928 38.1912 274.328 38.3512 274.848 38.3512C275.114 38.3512 275.341 38.3312 275.528 38.2912C275.728 38.2378 275.908 38.1778 276.068 38.1112V39.6112C275.868 39.6912 275.634 39.7512 275.368 39.7912C275.114 39.8445 274.868 39.8712 274.628 39.8712ZM281.397 39.8712C280.583 39.8712 279.823 39.7645 279.117 39.5512C278.423 39.3378 277.85 39.0312 277.397 38.6312L277.977 37.3712C278.47 37.7445 279.01 38.0312 279.597 38.2312C280.197 38.4178 280.81 38.5112 281.437 38.5112C282.197 38.5112 282.77 38.3712 283.157 38.0912C283.557 37.8112 283.757 37.4378 283.757 36.9712C283.757 36.5978 283.63 36.2978 283.377 36.0712C283.123 35.8445 282.723 35.6778 282.177 35.5712L280.277 35.1912C279.423 34.9912 278.777 34.6712 278.337 34.2312C277.91 33.7778 277.697 33.1978 277.697 32.4912C277.697 31.9045 277.857 31.3845 278.177 30.9312C278.497 30.4645 278.95 30.1045 279.537 29.8512C280.137 29.5845 280.837 29.4512 281.637 29.4512C282.37 29.4512 283.05 29.5578 283.677 29.7712C284.317 29.9845 284.843 30.2978 285.257 30.7112L284.657 31.9312C284.243 31.5712 283.777 31.2978 283.257 31.1112C282.75 30.9112 282.23 30.8112 281.697 30.8112C280.923 30.8112 280.35 30.9645 279.977 31.2712C279.603 31.5645 279.417 31.9512 279.417 32.4312C279.417 32.7912 279.53 33.0912 279.757 33.3312C279.983 33.5578 280.35 33.7312 280.857 33.8512L282.757 34.2312C283.65 34.4178 284.323 34.7245 284.777 35.1512C285.23 35.5778 285.457 36.1445 285.457 36.8512C285.457 37.4778 285.283 38.0178 284.937 38.4712C284.603 38.9245 284.13 39.2712 283.517 39.5112C282.917 39.7512 282.21 39.8712 281.397 39.8712Z" fill="white"/>
<path d="M237.531 145.167C234.988 145.167 232.549 144.801 230.215 144.07C227.881 143.303 225.965 142.258 224.467 140.934L226.662 135.865C228.299 137.119 229.989 138.043 231.731 138.635C233.508 139.227 235.371 139.523 237.322 139.523C239.691 139.523 241.486 139.053 242.705 138.112C243.924 137.172 244.534 135.795 244.534 133.984C244.534 132.242 243.924 130.935 242.705 130.065C241.52 129.159 239.778 128.706 237.479 128.706H231.522V123.323H236.904C238.89 123.323 240.475 122.835 241.66 121.86C242.844 120.885 243.437 119.543 243.437 117.836C243.437 116.234 242.879 115.014 241.764 114.178C240.684 113.342 239.117 112.924 237.061 112.924C233.368 112.924 230.111 114.178 227.289 116.686L225.094 111.67C226.592 110.276 228.438 109.196 230.633 108.43C232.863 107.663 235.197 107.28 237.636 107.28C241.468 107.28 244.464 108.151 246.624 109.893C248.819 111.6 249.917 113.986 249.917 117.052C249.917 119.247 249.289 121.146 248.035 122.748C246.816 124.316 245.126 125.361 242.966 125.884V125.257C245.509 125.675 247.478 126.72 248.871 128.392C250.3 130.03 251.014 132.085 251.014 134.559C251.014 137.834 249.812 140.429 247.408 142.345C245.004 144.226 241.712 145.167 237.531 145.167ZM257.839 144.645V139.68L270.068 126.929C271.601 125.326 272.733 123.846 273.465 122.487C274.196 121.128 274.562 119.735 274.562 118.306C274.562 116.53 274.005 115.188 272.89 114.283C271.775 113.377 270.155 112.924 268.03 112.924C266.323 112.924 264.685 113.237 263.117 113.865C261.55 114.457 260.017 115.397 258.519 116.686L256.324 111.67C257.822 110.346 259.668 109.283 261.863 108.482C264.093 107.681 266.427 107.28 268.866 107.28C272.837 107.28 275.886 108.168 278.011 109.945C280.136 111.722 281.199 114.265 281.199 117.575C281.199 119.874 280.659 122.069 279.579 124.159C278.499 126.215 276.826 128.375 274.562 130.639L264.372 140.83V139.053H282.662V144.645H257.839Z" fill="white"/>
<path d="M68.5171 121.672C65.9042 119.594 62.4203 118.172 58.7913 117.625C57.1945 117.297 55.5977 117.078 54.0009 116.968C58.0655 113.358 57.3396 107.889 52.5493 104.825C47.759 101.762 40.5009 102.309 36.4364 105.919C32.3719 109.529 33.0977 114.999 37.888 118.062C38.759 118.609 39.63 119.047 40.5009 119.266V121.672L38.1784 120.031C36.1461 118.5 32.8074 118.5 30.63 120.031C28.5977 121.563 28.4525 123.97 30.4848 125.501L37.1622 131.409C37.4525 132.94 38.1784 134.362 39.1945 135.675C39.9203 136.66 40.9364 137.644 41.9525 138.41V140.489C41.9525 141.145 42.5332 141.582 43.4042 141.582H63.1461C63.8719 141.582 64.5977 141.035 64.5977 140.489V137.644C67.3558 135.128 68.8074 131.956 68.8074 128.783V122.438C68.9525 122.001 68.8074 121.782 68.5171 121.672ZM36.5816 111.389C36.5816 107.779 40.5009 104.935 45.2913 105.044C50.0816 105.044 53.8558 107.998 53.7106 111.608C53.7106 113.577 52.5493 115.327 50.5171 116.531V111.061C50.4429 110.113 49.8904 109.222 48.9727 108.571C48.0551 107.92 46.8418 107.559 45.5816 107.56C42.9687 107.451 40.6461 109.092 40.6461 111.061V116.75C38.1784 115.656 36.7267 113.577 36.5816 111.389ZM66.0493 128.674C66.1945 131.518 64.888 134.253 62.4203 136.441C62.13 136.66 61.8396 136.878 61.8396 137.207V139.504H45.0009V137.972C45.0009 137.644 44.7106 137.316 44.4203 137.097C43.4042 136.441 42.5332 135.675 41.8074 134.691C40.9364 133.597 40.3558 132.284 40.0655 130.971C40.0655 130.752 39.9203 130.533 39.7751 130.315L32.8074 124.079C32.3719 123.751 32.0816 123.313 32.0816 122.766C32.0816 122.329 32.3719 121.782 32.8074 121.454C33.8235 120.797 35.2751 120.797 36.2913 121.454L40.5009 124.626V127.908L43.259 126.814V111.061C43.4042 110.295 44.2751 109.639 45.4364 109.748C46.4525 109.748 47.4687 110.295 47.4687 111.061V123.642L50.3719 124.079V119.047C50.5171 118.938 50.6622 118.938 50.8074 118.828C51.8235 118.828 52.8396 118.938 53.8558 119.047V124.626L56.1784 124.954V119.266L57.9203 119.594C58.6461 119.703 59.3719 119.922 60.0977 120.141V125.611L62.4203 125.939V120.907C63.7267 121.344 64.888 122.001 65.9042 122.766L66.0493 128.674Z" fill="white"/>
</g>
<rect x="0.725806" y="0.725806" width="319.355" height="161.548" rx="6.53226" stroke="#D8D8D8" stroke-width="1.45161"/>
<defs>
<clipPath id="clip0_2966_32116">
<rect width="320.806" height="163" rx="7.25806" fill="white"/>
</clipPath>
</defs>
</svg>
