<svg width="322" height="163" viewBox="0 0 322 163" fill="none" xmlns="http://www.w3.org/2000/svg">
<g clip-path="url(#clip0_2966_32124)">
<rect x="0.804688" width="320.806" height="163" rx="7.25806" fill="#00B388"/>
<ellipse cx="13.1449" cy="142.762" rx="55.8871" ry="42.1175" fill="#15BE96"/>
<ellipse cx="306.368" cy="20.2381" rx="55.8871" ry="42.1175" fill="#15BE96"/>
<path d="M102.924 39.8712C101.511 39.8712 100.298 39.5778 99.2844 38.9912C98.2844 38.4045 97.5177 37.5712 96.9844 36.4912C96.451 35.3978 96.1844 34.1112 96.1844 32.6312C96.1844 31.1512 96.451 29.8712 96.9844 28.7912C97.5177 27.7112 98.2844 26.8778 99.2844 26.2912C100.298 25.7045 101.511 25.4112 102.924 25.4112C103.938 25.4112 104.838 25.5645 105.624 25.8712C106.411 26.1645 107.098 26.5978 107.684 27.1712L107.004 28.6712C106.364 28.1112 105.731 27.7112 105.104 27.4712C104.491 27.2178 103.778 27.0912 102.964 27.0912C101.404 27.0912 100.211 27.5712 99.3844 28.5312C98.5577 29.4912 98.1444 30.8578 98.1444 32.6312C98.1444 34.4045 98.5577 35.7778 99.3844 36.7512C100.211 37.7112 101.404 38.1912 102.964 38.1912C103.778 38.1912 104.491 38.0712 105.104 37.8312C105.731 37.5778 106.364 37.1712 107.004 36.6112L107.684 38.0912C107.098 38.6645 106.404 39.1045 105.604 39.4112C104.818 39.7178 103.924 39.8712 102.924 39.8712ZM113.733 39.8712C112.746 39.8712 111.893 39.6645 111.173 39.2512C110.453 38.8245 109.893 38.2245 109.493 37.4512C109.093 36.6645 108.893 35.7312 108.893 34.6512C108.893 33.5845 109.093 32.6645 109.493 31.8912C109.893 31.1045 110.453 30.5045 111.173 30.0912C111.893 29.6645 112.746 29.4512 113.733 29.4512C114.719 29.4512 115.573 29.6645 116.293 30.0912C117.026 30.5045 117.586 31.1045 117.973 31.8912C118.373 32.6645 118.573 33.5845 118.573 34.6512C118.573 35.7312 118.373 36.6645 117.973 37.4512C117.586 38.2245 117.026 38.8245 116.293 39.2512C115.573 39.6645 114.719 39.8712 113.733 39.8712ZM113.733 38.4312C114.639 38.4312 115.366 38.1112 115.913 37.4712C116.459 36.8312 116.733 35.8912 116.733 34.6512C116.733 33.4112 116.459 32.4778 115.913 31.8512C115.366 31.2245 114.639 30.9112 113.733 30.9112C112.813 30.9112 112.079 31.2245 111.533 31.8512C110.999 32.4778 110.733 33.4112 110.733 34.6512C110.733 35.8912 110.999 36.8312 111.533 37.4712C112.079 38.1112 112.813 38.4312 113.733 38.4312ZM121.016 39.6912V32.0112C121.016 31.6245 121.003 31.2312 120.976 30.8312C120.949 30.4312 120.909 30.0312 120.856 29.6312H122.616L122.816 31.7912H122.576C122.843 31.0445 123.269 30.4712 123.856 30.0712C124.443 29.6578 125.143 29.4512 125.956 29.4512C126.783 29.4512 127.463 29.6512 127.996 30.0512C128.529 30.4378 128.889 31.0512 129.076 31.8912H128.776C129.029 31.1445 129.476 30.5512 130.116 30.1112C130.756 29.6712 131.503 29.4512 132.356 29.4512C133.463 29.4512 134.296 29.7778 134.856 30.4312C135.416 31.0712 135.696 32.0712 135.696 33.4312V39.6912H133.876V33.5312C133.876 32.6112 133.716 31.9512 133.396 31.5512C133.076 31.1378 132.569 30.9312 131.876 30.9312C131.063 30.9312 130.423 31.2112 129.956 31.7712C129.489 32.3178 129.256 33.0645 129.256 34.0112V39.6912H127.436V33.5312C127.436 32.6112 127.276 31.9512 126.956 31.5512C126.649 31.1378 126.143 30.9312 125.436 30.9312C124.623 30.9312 123.983 31.2112 123.516 31.7712C123.063 32.3178 122.836 33.0645 122.836 34.0112V39.6912H121.016ZM138.672 44.0112V32.0112C138.672 31.6245 138.659 31.2312 138.632 30.8312C138.606 30.4312 138.566 30.0312 138.512 29.6312H140.272L140.492 31.9512H140.272C140.472 31.1778 140.899 30.5712 141.552 30.1312C142.206 29.6778 142.986 29.4512 143.892 29.4512C144.786 29.4512 145.566 29.6578 146.232 30.0712C146.899 30.4845 147.412 31.0845 147.772 31.8712C148.146 32.6445 148.332 33.5712 148.332 34.6512C148.332 35.7312 148.146 36.6645 147.772 37.4512C147.412 38.2378 146.899 38.8378 146.232 39.2512C145.566 39.6645 144.786 39.8712 143.892 39.8712C142.999 39.8712 142.226 39.6512 141.572 39.2112C140.932 38.7578 140.499 38.1512 140.272 37.3912H140.492V44.0112H138.672ZM143.472 38.4312C144.392 38.4312 145.126 38.1112 145.672 37.4712C146.219 36.8312 146.492 35.8912 146.492 34.6512C146.492 33.4112 146.219 32.4778 145.672 31.8512C145.126 31.2245 144.392 30.9112 143.472 30.9112C142.552 30.9112 141.819 31.2245 141.272 31.8512C140.739 32.4778 140.472 33.4112 140.472 34.6512C140.472 35.8912 140.739 36.8312 141.272 37.4712C141.819 38.1112 142.552 38.4312 143.472 38.4312ZM150.782 39.6912V24.9712H152.602V39.6912H150.782ZM160.225 39.8712C158.625 39.8712 157.358 39.4112 156.425 38.4912C155.505 37.5712 155.045 36.3045 155.045 34.6912C155.045 33.6245 155.245 32.7045 155.645 31.9312C156.058 31.1445 156.625 30.5378 157.345 30.1112C158.065 29.6712 158.905 29.4512 159.865 29.4512C160.785 29.4512 161.565 29.6512 162.205 30.0512C162.845 30.4378 163.332 30.9912 163.665 31.7112C163.998 32.4312 164.165 33.2845 164.165 34.2712V34.8712H156.465V33.7912H162.925L162.585 34.0512C162.585 33.0112 162.352 32.2045 161.885 31.6312C161.432 31.0578 160.758 30.7712 159.865 30.7712C158.892 30.7712 158.138 31.1112 157.605 31.7912C157.072 32.4578 156.805 33.3712 156.805 34.5312V34.7112C156.805 35.9378 157.105 36.8645 157.705 37.4912C158.318 38.1178 159.165 38.4312 160.245 38.4312C160.845 38.4312 161.405 38.3445 161.925 38.1712C162.445 37.9978 162.945 37.7112 163.425 37.3112L164.025 38.5712C163.572 38.9845 163.005 39.3045 162.325 39.5312C161.658 39.7578 160.958 39.8712 160.225 39.8712ZM170.284 39.8712C169.231 39.8712 168.431 39.5845 167.884 39.0112C167.351 38.4245 167.084 37.5445 167.084 36.3712V31.0312H165.124V29.6312H167.084V26.9312L168.904 26.4312V29.6312H171.744V31.0312H168.904V36.2112C168.904 36.9845 169.037 37.5378 169.304 37.8712C169.584 38.1912 169.984 38.3512 170.504 38.3512C170.771 38.3512 170.997 38.3312 171.184 38.2912C171.384 38.2378 171.564 38.1778 171.724 38.1112V39.6112C171.524 39.6912 171.291 39.7512 171.024 39.7912C170.771 39.8445 170.524 39.8712 170.284 39.8712ZM178.135 39.8712C176.535 39.8712 175.268 39.4112 174.335 38.4912C173.415 37.5712 172.955 36.3045 172.955 34.6912C172.955 33.6245 173.155 32.7045 173.555 31.9312C173.968 31.1445 174.535 30.5378 175.255 30.1112C175.975 29.6712 176.815 29.4512 177.775 29.4512C178.695 29.4512 179.475 29.6512 180.115 30.0512C180.755 30.4378 181.242 30.9912 181.575 31.7112C181.908 32.4312 182.075 33.2845 182.075 34.2712V34.8712H174.375V33.7912H180.835L180.495 34.0512C180.495 33.0112 180.262 32.2045 179.795 31.6312C179.342 31.0578 178.668 30.7712 177.775 30.7712C176.802 30.7712 176.048 31.1112 175.515 31.7912C174.982 32.4578 174.715 33.3712 174.715 34.5312V34.7112C174.715 35.9378 175.015 36.8645 175.615 37.4912C176.228 38.1178 177.075 38.4312 178.155 38.4312C178.755 38.4312 179.315 38.3445 179.835 38.1712C180.355 37.9978 180.855 37.7112 181.335 37.3112L181.935 38.5712C181.482 38.9845 180.915 39.3045 180.235 39.5312C179.568 39.7578 178.868 39.8712 178.135 39.8712ZM188.294 39.8712C187.414 39.8712 186.64 39.6645 185.974 39.2512C185.307 38.8378 184.787 38.2378 184.414 37.4512C184.04 36.6645 183.854 35.7312 183.854 34.6512C183.854 33.5712 184.04 32.6445 184.414 31.8712C184.787 31.0845 185.307 30.4845 185.974 30.0712C186.64 29.6578 187.414 29.4512 188.294 29.4512C189.174 29.4512 189.94 29.6712 190.594 30.1112C191.26 30.5512 191.707 31.1578 191.934 31.9312H191.694V24.9712H193.514V39.6912H191.714V37.3512H191.934C191.72 38.1378 191.28 38.7578 190.614 39.2112C189.96 39.6512 189.187 39.8712 188.294 39.8712ZM188.714 38.4312C189.62 38.4312 190.347 38.1112 190.894 37.4712C191.454 36.8312 191.734 35.8912 191.734 34.6512C191.734 33.4112 191.454 32.4778 190.894 31.8512C190.347 31.2245 189.62 30.9112 188.714 30.9112C187.807 30.9112 187.074 31.2245 186.514 31.8512C185.967 32.4778 185.694 33.4112 185.694 34.6512C185.694 35.8912 185.967 36.8312 186.514 37.4712C187.074 38.1112 187.807 38.4312 188.714 38.4312ZM202.036 39.6912V25.5912H207.876C209.383 25.5912 210.543 25.9445 211.356 26.6512C212.183 27.3578 212.596 28.3445 212.596 29.6112C212.596 30.4512 212.41 31.1645 212.036 31.7512C211.663 32.3378 211.136 32.7845 210.456 33.0912C209.79 33.3978 209.01 33.5512 208.116 33.5512L208.456 33.2712H208.936C209.483 33.2712 209.97 33.4112 210.396 33.6912C210.823 33.9578 211.176 34.3978 211.456 35.0112L213.456 39.6912H211.396L209.456 35.0512C209.23 34.4778 208.896 34.1045 208.456 33.9312C208.03 33.7578 207.49 33.6712 206.836 33.6712H203.896V39.6912H202.036ZM203.896 32.2312H207.596C208.623 32.2312 209.403 32.0112 209.936 31.5712C210.483 31.1312 210.756 30.4912 210.756 29.6512C210.756 28.8245 210.483 28.1978 209.936 27.7712C209.403 27.3312 208.623 27.1112 207.596 27.1112H203.896V32.2312ZM220.088 39.8712C218.488 39.8712 217.222 39.4112 216.288 38.4912C215.368 37.5712 214.908 36.3045 214.908 34.6912C214.908 33.6245 215.108 32.7045 215.508 31.9312C215.922 31.1445 216.488 30.5378 217.208 30.1112C217.928 29.6712 218.768 29.4512 219.728 29.4512C220.648 29.4512 221.428 29.6512 222.068 30.0512C222.708 30.4378 223.195 30.9912 223.528 31.7112C223.862 32.4312 224.028 33.2845 224.028 34.2712V34.8712H216.328V33.7912H222.788L222.448 34.0512C222.448 33.0112 222.215 32.2045 221.748 31.6312C221.295 31.0578 220.622 30.7712 219.728 30.7712C218.755 30.7712 218.002 31.1112 217.468 31.7912C216.935 32.4578 216.668 33.3712 216.668 34.5312V34.7112C216.668 35.9378 216.968 36.8645 217.568 37.4912C218.182 38.1178 219.028 38.4312 220.108 38.4312C220.708 38.4312 221.268 38.3445 221.788 38.1712C222.308 37.9978 222.808 37.7112 223.288 37.3112L223.888 38.5712C223.435 38.9845 222.868 39.3045 222.188 39.5312C221.522 39.7578 220.822 39.8712 220.088 39.8712ZM233.647 44.0112V37.3912H233.867C233.653 38.1512 233.213 38.7578 232.547 39.2112C231.893 39.6512 231.127 39.8712 230.247 39.8712C229.367 39.8712 228.593 39.6645 227.927 39.2512C227.26 38.8378 226.74 38.2378 226.367 37.4512C225.993 36.6645 225.807 35.7312 225.807 34.6512C225.807 33.5712 225.993 32.6445 226.367 31.8712C226.74 31.0845 227.26 30.4845 227.927 30.0712C228.593 29.6578 229.367 29.4512 230.247 29.4512C231.14 29.4512 231.913 29.6778 232.567 30.1312C233.233 30.5712 233.673 31.1778 233.887 31.9512H233.647L233.867 29.6312H235.627C235.587 30.0312 235.547 30.4312 235.507 30.8312C235.48 31.2312 235.467 31.6245 235.467 32.0112V44.0112H233.647ZM230.667 38.4312C231.573 38.4312 232.3 38.1112 232.847 37.4712C233.393 36.8312 233.667 35.8912 233.667 34.6512C233.667 33.4112 233.393 32.4778 232.847 31.8512C232.3 31.2245 231.573 30.9112 230.667 30.9112C229.76 30.9112 229.027 31.2245 228.467 31.8512C227.92 32.4778 227.647 33.4112 227.647 34.6512C227.647 35.8912 227.92 36.8312 228.467 37.4712C229.013 38.1112 229.747 38.4312 230.667 38.4312ZM242.096 39.8712C240.883 39.8712 239.969 39.5445 239.356 38.8912C238.756 38.2378 238.456 37.2312 238.456 35.8712V29.6312H240.276V35.8312C240.276 36.7112 240.456 37.3578 240.816 37.7712C241.176 38.1845 241.736 38.3912 242.496 38.3912C243.323 38.3912 243.989 38.1178 244.496 37.5712C245.016 37.0112 245.276 36.2712 245.276 35.3512V29.6312H247.096V39.6912H245.336V37.4712H245.596C245.316 38.2312 244.869 38.8245 244.256 39.2512C243.643 39.6645 242.923 39.8712 242.096 39.8712ZM254.737 39.8712C253.137 39.8712 251.87 39.4112 250.937 38.4912C250.017 37.5712 249.557 36.3045 249.557 34.6912C249.557 33.6245 249.757 32.7045 250.157 31.9312C250.57 31.1445 251.137 30.5378 251.857 30.1112C252.577 29.6712 253.417 29.4512 254.377 29.4512C255.297 29.4512 256.077 29.6512 256.717 30.0512C257.357 30.4378 257.843 30.9912 258.177 31.7112C258.51 32.4312 258.677 33.2845 258.677 34.2712V34.8712H250.977V33.7912H257.437L257.097 34.0512C257.097 33.0112 256.863 32.2045 256.397 31.6312C255.943 31.0578 255.27 30.7712 254.377 30.7712C253.403 30.7712 252.65 31.1112 252.117 31.7912C251.583 32.4578 251.317 33.3712 251.317 34.5312V34.7112C251.317 35.9378 251.617 36.8645 252.217 37.4912C252.83 38.1178 253.677 38.4312 254.757 38.4312C255.357 38.4312 255.917 38.3445 256.437 38.1712C256.957 37.9978 257.457 37.7112 257.937 37.3112L258.537 38.5712C258.083 38.9845 257.517 39.3045 256.837 39.5312C256.17 39.7578 255.47 39.8712 254.737 39.8712ZM264.455 39.8712C263.642 39.8712 262.882 39.7645 262.175 39.5512C261.482 39.3378 260.908 39.0312 260.455 38.6312L261.035 37.3712C261.528 37.7445 262.068 38.0312 262.655 38.2312C263.255 38.4178 263.868 38.5112 264.495 38.5112C265.255 38.5112 265.828 38.3712 266.215 38.0912C266.615 37.8112 266.815 37.4378 266.815 36.9712C266.815 36.5978 266.688 36.2978 266.435 36.0712C266.182 35.8445 265.782 35.6778 265.235 35.5712L263.335 35.1912C262.482 34.9912 261.835 34.6712 261.395 34.2312C260.968 33.7778 260.755 33.1978 260.755 32.4912C260.755 31.9045 260.915 31.3845 261.235 30.9312C261.555 30.4645 262.008 30.1045 262.595 29.8512C263.195 29.5845 263.895 29.4512 264.695 29.4512C265.428 29.4512 266.108 29.5578 266.735 29.7712C267.375 29.9845 267.902 30.2978 268.315 30.7112L267.715 31.9312C267.302 31.5712 266.835 31.2978 266.315 31.1112C265.808 30.9112 265.288 30.8112 264.755 30.8112C263.982 30.8112 263.408 30.9645 263.035 31.2712C262.662 31.5645 262.475 31.9512 262.475 32.4312C262.475 32.7912 262.588 33.0912 262.815 33.3312C263.042 33.5578 263.408 33.7312 263.915 33.8512L265.815 34.2312C266.708 34.4178 267.382 34.7245 267.835 35.1512C268.288 35.5778 268.515 36.1445 268.515 36.8512C268.515 37.4778 268.342 38.0178 267.995 38.4712C267.662 38.9245 267.188 39.2712 266.575 39.5112C265.975 39.7512 265.268 39.8712 264.455 39.8712ZM274.659 39.8712C273.606 39.8712 272.806 39.5845 272.259 39.0112C271.726 38.4245 271.459 37.5445 271.459 36.3712V31.0312H269.499V29.6312H271.459V26.9312L273.279 26.4312V29.6312H276.119V31.0312H273.279V36.2112C273.279 36.9845 273.412 37.5378 273.679 37.8712C273.959 38.1912 274.359 38.3512 274.879 38.3512C275.146 38.3512 275.372 38.3312 275.559 38.2912C275.759 38.2378 275.939 38.1778 276.099 38.1112V39.6112C275.899 39.6912 275.666 39.7512 275.399 39.7912C275.146 39.8445 274.899 39.8712 274.659 39.8712ZM281.428 39.8712C280.614 39.8712 279.854 39.7645 279.148 39.5512C278.454 39.3378 277.881 39.0312 277.428 38.6312L278.008 37.3712C278.501 37.7445 279.041 38.0312 279.628 38.2312C280.228 38.4178 280.841 38.5112 281.468 38.5112C282.228 38.5112 282.801 38.3712 283.188 38.0912C283.588 37.8112 283.788 37.4378 283.788 36.9712C283.788 36.5978 283.661 36.2978 283.408 36.0712C283.154 35.8445 282.754 35.6778 282.208 35.5712L280.308 35.1912C279.454 34.9912 278.808 34.6712 278.368 34.2312C277.941 33.7778 277.728 33.1978 277.728 32.4912C277.728 31.9045 277.888 31.3845 278.208 30.9312C278.528 30.4645 278.981 30.1045 279.568 29.8512C280.168 29.5845 280.868 29.4512 281.668 29.4512C282.401 29.4512 283.081 29.5578 283.708 29.7712C284.348 29.9845 284.874 30.2978 285.288 30.7112L284.688 31.9312C284.274 31.5712 283.808 31.2978 283.288 31.1112C282.781 30.9112 282.261 30.8112 281.728 30.8112C280.954 30.8112 280.381 30.9645 280.008 31.2712C279.634 31.5645 279.448 31.9512 279.448 32.4312C279.448 32.7912 279.561 33.0912 279.788 33.3312C280.014 33.5578 280.381 33.7312 280.888 33.8512L282.788 34.2312C283.681 34.4178 284.354 34.7245 284.808 35.1512C285.261 35.5778 285.488 36.1445 285.488 36.8512C285.488 37.4778 285.314 38.0178 284.968 38.4712C284.634 38.9245 284.161 39.2712 283.548 39.5112C282.948 39.7512 282.241 39.8712 281.428 39.8712Z" fill="white"/>
<path d="M198.219 144.645V139.053H206.684V113.446H209.924L199.055 119.926V113.551L208.618 107.803H213.426V139.053H221.369V144.645H198.219ZM229.553 144.645V139.053H238.019V113.446H241.259L230.389 119.926V113.551L239.952 107.803H244.76V139.053H252.703V144.645H229.553ZM273.691 144.645V137.433H257.229V132.73L274.736 107.803H280.171V132.312H285.449V137.433H280.171V144.645H273.691ZM273.691 132.312V115.746H274.945L262.246 133.879V132.312H273.691Z" fill="white"/>
<path d="M69.3218 121.672C66.7088 119.594 63.225 118.172 59.5959 117.625C57.9992 117.297 56.4024 117.078 54.8056 116.968C58.8701 113.358 58.1443 107.889 53.354 104.825C48.5637 101.762 41.3056 102.309 37.2411 105.919C33.1766 109.529 33.9024 114.999 38.6927 118.062C39.5637 118.609 40.4347 119.047 41.3056 119.266V121.672L38.983 120.031C36.9508 118.5 33.6121 118.5 31.4347 120.031C29.4024 121.563 29.2572 123.97 31.2895 125.501L37.9669 131.409C38.2572 132.94 38.983 134.362 39.9992 135.675C40.725 136.66 41.7411 137.644 42.7572 138.41V140.489C42.7572 141.145 43.3379 141.582 44.2088 141.582H63.9508C64.6766 141.582 65.4024 141.035 65.4024 140.489V137.644C68.1605 135.128 69.6121 131.956 69.6121 128.783V122.438C69.7572 122.001 69.6121 121.782 69.3218 121.672ZM37.3863 111.389C37.3863 107.779 41.3056 104.935 46.0959 105.044C50.8863 105.044 54.6605 107.998 54.5153 111.608C54.5153 113.577 53.354 115.327 51.3218 116.531V111.061C51.2476 110.113 50.6951 109.222 49.7774 108.571C48.8597 107.92 47.6465 107.559 46.3863 107.56C43.7734 107.451 41.4508 109.092 41.4508 111.061V116.75C38.983 115.656 37.5314 113.577 37.3863 111.389ZM66.854 128.674C66.9992 131.518 65.6927 134.253 63.225 136.441C62.9347 136.66 62.6443 136.878 62.6443 137.207V139.504H45.8056V137.972C45.8056 137.644 45.5153 137.316 45.225 137.097C44.2088 136.441 43.3379 135.675 42.6121 134.691C41.7411 133.597 41.1605 132.284 40.8701 130.971C40.8701 130.752 40.725 130.533 40.5798 130.315L33.6121 124.079C33.1766 123.751 32.8863 123.313 32.8863 122.766C32.8863 122.329 33.1766 121.782 33.6121 121.454C34.6282 120.797 36.0798 120.797 37.0959 121.454L41.3056 124.626V127.908L44.0637 126.814V111.061C44.2088 110.295 45.0798 109.639 46.2411 109.748C47.2572 109.748 48.2734 110.295 48.2734 111.061V123.642L51.1766 124.079V119.047C51.3218 118.938 51.4669 118.938 51.6121 118.828C52.6282 118.828 53.6443 118.938 54.6605 119.047V124.626L56.983 124.954V119.266L58.725 119.594C59.4508 119.703 60.1766 119.922 60.9024 120.141V125.611L63.225 125.939V120.907C64.5314 121.344 65.6927 122.001 66.7089 122.766L66.854 128.674Z" fill="white"/>
</g>
<rect x="1.53049" y="0.725806" width="319.355" height="161.548" rx="6.53226" stroke="#D8D8D8" stroke-width="1.45161"/>
<defs>
<clipPath id="clip0_2966_32124">
<rect x="0.804688" width="320.806" height="163" rx="7.25806" fill="white"/>
</clipPath>
</defs>
</svg>
