<svg width="135" height="122" viewBox="0 0 135 122" fill="none" xmlns="http://www.w3.org/2000/svg">
<circle cx="74" cy="61" r="59.5" stroke="#7F8B94" stroke-width="3"/>
<path d="M109.625 58.3125H72V34.125C71.9986 32.6999 71.4318 31.3336 70.4241 30.3259C69.4164 29.3182 68.0501 28.7514 66.625 28.75H45.125C43.6999 28.7514 42.3336 29.3182 41.3259 30.3259C40.3182 31.3336 39.7514 32.6999 39.75 34.125V58.3125H34.375V63.6875H72V87.875C72.0014 89.3001 72.5682 90.6664 73.5759 91.6741C74.5836 92.6818 75.9499 93.2486 77.375 93.25H98.875C100.3 93.2486 101.666 92.6818 102.674 91.6741C103.682 90.6664 104.249 89.3001 104.25 87.875V63.6875H109.625V58.3125ZM45.125 34.125H66.625V58.3125H45.125V34.125ZM98.875 87.875H77.375V63.6875H98.875V87.875Z" fill="#7F8B94"/>
<path d="M49.0607 94.0607C49.6464 93.4749 49.6464 92.5251 49.0607 91.9393L39.5147 82.3934C38.9289 81.8076 37.9792 81.8076 37.3934 82.3934C36.8076 82.9792 36.8076 83.9289 37.3934 84.5147L45.8787 93L37.3934 101.485C36.8076 102.071 36.8076 103.021 37.3934 103.607C37.9792 104.192 38.9289 104.192 39.5147 103.607L49.0607 94.0607ZM0 94.5H48V91.5H0V94.5Z" fill="#7F8B94"/>
</svg>
