<svg width="12" height="12" viewBox="0 0 12 12" fill="none" xmlns="http://www.w3.org/2000/svg">
<path d="M9.0155 8.30874L11.157 10.4497L10.4495 11.1572L8.3085 9.01574C7.51187 9.65436 6.521 10.0017 5.5 10.0002C3.016 10.0002 1 7.98424 1 5.50024C1 3.01624 3.016 1.00024 5.5 1.00024C7.984 1.00024 10 3.01624 10 5.50024C10.0015 6.52124 9.65411 7.51211 9.0155 8.30874ZM8.0125 7.93774C8.64706 7.28519 9.00143 6.41046 9 5.50024C9 3.56674 7.4335 2.00024 5.5 2.00024C3.5665 2.00024 2 3.56674 2 5.50024C2 7.43374 3.5665 9.00024 5.5 9.00024C6.41021 9.00168 7.28494 8.6473 7.9375 8.01274L8.0125 7.93774Z" fill="#585858"/>
</svg>
