<svg width="145" height="145" viewBox="0 0 145 145" fill="none" xmlns="http://www.w3.org/2000/svg">
<path d="M72.0267 144.053C111.806 144.053 144.053 111.806 144.053 72.0266C144.053 32.2474 111.806 0 72.0267 0C32.2474 0 0 32.2474 0 72.0266C0 111.806 32.2474 144.053 72.0267 144.053Z" fill="#382673"/>
<path d="M72.0261 132.048C105.176 132.048 132.048 105.175 132.048 72.0261C132.048 38.8768 105.176 12.0039 72.0261 12.0039C38.8768 12.0039 12.0039 38.8768 12.0039 72.0261C12.0039 105.175 38.8768 132.048 72.0261 132.048Z" fill="#473080"/>
<path d="M54.0234 141.773C59.7856 143.213 65.7878 144.053 72.0301 144.053C74.0709 144.053 75.9916 143.933 78.0323 143.813V89.3132L54.0234 72.0269V141.773Z" fill="#FFDE39"/>
<path d="M66.024 31.2115V69.9859C66.024 72.8669 64.1033 75.5079 61.3422 75.9881C57.3808 76.8284 54.0195 73.9473 54.0195 70.2259V31.4516C54.0195 28.5706 55.9402 25.9296 58.7013 25.4494C62.6627 24.4891 66.024 27.4902 66.024 31.2115Z" fill="#F9A74E"/>
<path opacity="0.2" d="M64.8274 27.6104L55.3439 39.4947C54.5036 40.5751 54.0234 41.8956 54.0234 43.2161V61.1027C54.0234 63.9838 55.9442 66.6247 58.7052 67.1049C62.5466 67.9452 66.0279 64.9441 66.0279 61.2227V45.3769V31.2117C66.0279 29.8912 65.5477 28.5707 64.8274 27.6104Z" fill="#382673"/>
<path d="M78.0284 37.2138C78.0284 38.5342 77.5482 39.8547 76.7079 40.9351L66.024 54.26V69.9859C66.024 72.8669 64.1033 75.5079 61.3422 75.9881C57.3808 76.8284 54.0195 73.9473 54.0195 70.2259V52.2193C54.0195 50.8988 54.4997 49.5783 55.34 48.4979L67.3445 33.4924C69.3852 30.8514 73.2266 30.4913 75.7476 32.532C77.3082 33.6124 78.0284 35.4131 78.0284 37.2138Z" fill="#FEC632"/>
<path opacity="0.1" d="M75.9848 41.8958C63.7403 42.8561 54.1367 53.1799 54.1367 65.6645C54.1367 68.6656 54.7369 71.5467 55.6973 74.1877C57.1378 75.7482 59.1786 76.4685 61.5795 75.9883C64.2204 75.3881 66.0211 72.7471 66.0211 69.9861V54.3804L75.9848 41.8958Z" fill="#382673"/>
<path d="M94.5923 78.99C90.871 89.3138 79.4667 89.4339 77.9062 89.4339C68.0625 89.4339 60.0195 81.3909 60.0195 71.5472C60.0195 61.7036 68.0625 53.6606 77.9062 53.6606C86.7895 53.6606 91.2311 58.8225 91.2311 58.8225" stroke="#FFDE39" stroke-width="6.48889" stroke-miterlimit="10" stroke-linecap="round" stroke-linejoin="round"/>
</svg>
