<svg width="24" height="24" viewBox="0 0 24 24" fill="none" xmlns="http://www.w3.org/2000/svg">
<path d="M11.9984 15.5999C12.7105 15.5999 13.4065 15.3888 13.9985 14.9932C14.5905 14.5976 15.0519 14.0354 15.3244 13.3776C15.5969 12.7198 15.6682 11.9959 15.5293 11.2976C15.3904 10.5992 15.0475 9.95779 14.544 9.45432C14.0406 8.95085 13.3991 8.60798 12.7008 8.46908C12.0024 8.33017 11.2786 8.40146 10.6208 8.67394C9.96296 8.94641 9.40072 9.40783 9.00515 9.99985C8.60957 10.5919 8.39844 11.2879 8.39844 11.9999C8.39844 12.9547 8.77772 13.8704 9.45285 14.5455C10.128 15.2206 11.0437 15.5999 11.9984 15.5999ZM11.9984 10.7999C12.2358 10.7999 12.4678 10.8703 12.6651 11.0021C12.8625 11.134 13.0163 11.3214 13.1071 11.5407C13.1979 11.76 13.2217 12.0012 13.1754 12.234C13.1291 12.4668 13.0148 12.6806 12.847 12.8484C12.6791 13.0163 12.4653 13.1305 12.2325 13.1768C11.9998 13.2231 11.7585 13.1994 11.5392 13.1086C11.3199 13.0177 11.1325 12.8639 11.0007 12.6666C10.8688 12.4693 10.7984 12.2372 10.7984 11.9999C10.7984 11.6816 10.9249 11.3764 11.1499 11.1514C11.375 10.9263 11.6802 10.7999 11.9984 10.7999Z" fill="#FF7A00"/>
<path d="M0.972 17.94L6 23.028L8.4 20.628V24H15.6V20.688L18 23.088L23.088 18L20.688 15.6H24V8.4H20.688L23.028 6.06L18 0.972L15.6 3.372V0H8.4V3.312L6 0.912L0.972 6.06L3.312 8.4H0V15.6H3.312L0.972 17.94ZM2.4 13.2V10.8H6.072L6.36 9.996C6.42939 9.79584 6.50951 9.59955 6.6 9.408L6.96 8.64L4.368 6.06L6 4.368L8.652 6.96L9.42 6.6C9.61179 6.51005 9.80805 6.42995 10.008 6.36L10.8 6.072V2.4H13.2V6.072L14.004 6.36C14.204 6.42995 14.4002 6.51005 14.592 6.6L15.36 6.96L18 4.368L19.692 6.06L17.04 8.652L17.4 9.42C17.4905 9.61155 17.5706 9.80784 17.64 10.008L17.928 10.812H21.6V13.212H17.928L17.64 14.016C17.5706 14.2162 17.4905 14.4124 17.4 14.604L17.04 15.372L19.632 17.964L18 19.632L15.348 17.04L14.58 17.4C14.3882 17.4899 14.192 17.5701 13.992 17.64L13.188 17.928V21.6H10.8V17.928L9.996 17.64C9.79605 17.5701 9.59979 17.4899 9.408 17.4L8.64 17.04L6 19.632L4.368 17.94L6.96 15.348L6.6 14.58C6.50951 14.3884 6.42939 14.1922 6.36 13.992L6.072 13.2H2.4Z" fill="#FF7A00"/>
</svg>
