<svg width="322" height="163" viewBox="0 0 322 163" fill="none" xmlns="http://www.w3.org/2000/svg">
<g clip-path="url(#clip0_2966_32140)">
<rect x="0.804688" width="320.806" height="163" rx="7.25806" fill="#E30000"/>
<ellipse cx="13.1449" cy="142.762" rx="55.8871" ry="42.1175" fill="#FE4840"/>
<ellipse cx="306.368" cy="20.2383" rx="55.8871" ry="42.1175" fill="#FE4840"/>
<path d="M120.294 39.6914V25.5914H125.074C126.648 25.5914 127.974 25.8647 129.054 26.4114C130.148 26.9581 130.974 27.7581 131.534 28.8114C132.094 29.8514 132.374 31.1247 132.374 32.6314C132.374 34.1381 132.094 35.4181 131.534 36.4714C130.974 37.5247 130.148 38.3247 129.054 38.8714C127.974 39.4181 126.648 39.6914 125.074 39.6914H120.294ZM122.154 38.1114H124.934C126.814 38.1114 128.208 37.6581 129.114 36.7514C130.021 35.8447 130.474 34.4714 130.474 32.6314C130.474 30.7914 130.021 29.4247 129.114 28.5314C128.208 27.6247 126.814 27.1714 124.934 27.1714H122.154V38.1114ZM139.674 39.8714C138.074 39.8714 136.808 39.4114 135.874 38.4914C134.954 37.5714 134.494 36.3047 134.494 34.6914C134.494 33.6247 134.694 32.7047 135.094 31.9314C135.508 31.1447 136.074 30.5381 136.794 30.1114C137.514 29.6714 138.354 29.4514 139.314 29.4514C140.234 29.4514 141.014 29.6514 141.654 30.0514C142.294 30.4381 142.781 30.9914 143.114 31.7114C143.448 32.4314 143.614 33.2847 143.614 34.2714V34.8714H135.914V33.7914H142.374L142.034 34.0514C142.034 33.0114 141.801 32.2047 141.334 31.6314C140.881 31.0581 140.208 30.7714 139.314 30.7714C138.341 30.7714 137.588 31.1114 137.054 31.7914C136.521 32.4581 136.254 33.3714 136.254 34.5314V34.7114C136.254 35.9381 136.554 36.8647 137.154 37.4914C137.768 38.1181 138.614 38.4314 139.694 38.4314C140.294 38.4314 140.854 38.3447 141.374 38.1714C141.894 37.9981 142.394 37.7114 142.874 37.3114L143.474 38.5714C143.021 38.9847 142.454 39.3047 141.774 39.5314C141.108 39.7581 140.408 39.8714 139.674 39.8714ZM145.993 39.6914V24.9714H147.813V39.6914H145.993ZM154.696 39.8714C153.816 39.8714 153.043 39.6647 152.376 39.2514C151.709 38.8381 151.189 38.2381 150.816 37.4514C150.443 36.6647 150.256 35.7314 150.256 34.6514C150.256 33.5714 150.443 32.6447 150.816 31.8714C151.189 31.0847 151.709 30.4847 152.376 30.0714C153.043 29.6581 153.816 29.4514 154.696 29.4514C155.589 29.4514 156.363 29.6781 157.016 30.1314C157.683 30.5714 158.123 31.1781 158.336 31.9514H158.096L158.316 29.6314H160.076C160.036 30.0314 159.996 30.4314 159.956 30.8314C159.929 31.2314 159.916 31.6247 159.916 32.0114V39.6914H158.096V37.3914H158.316C158.103 38.1514 157.663 38.7581 156.996 39.2114C156.343 39.6514 155.576 39.8714 154.696 39.8714ZM155.116 38.4314C156.023 38.4314 156.749 38.1114 157.296 37.4714C157.843 36.8314 158.116 35.8914 158.116 34.6514C158.116 33.4114 157.843 32.4781 157.296 31.8514C156.749 31.2247 156.023 30.9114 155.116 30.9114C154.209 30.9114 153.476 31.2247 152.916 31.8514C152.369 32.4781 152.096 33.4114 152.096 34.6514C152.096 35.8914 152.369 36.8314 152.916 37.4714C153.463 38.1114 154.196 38.4314 155.116 38.4314ZM162.528 44.2314L162.108 42.7514C162.734 42.6047 163.254 42.4314 163.668 42.2314C164.081 42.0447 164.428 41.7981 164.708 41.4914C164.988 41.1847 165.234 40.7981 165.448 40.3314L165.948 39.1314L165.908 39.8914L161.528 29.6314H163.488L166.988 38.2514H166.468L169.968 29.6314H171.848L167.228 40.4714C166.948 41.1247 166.641 41.6714 166.308 42.1114C165.988 42.5514 165.634 42.9114 165.248 43.1914C164.874 43.4714 164.461 43.6914 164.008 43.8514C163.554 44.0114 163.061 44.1381 162.528 44.2314ZM177.975 39.8714C176.375 39.8714 175.108 39.4114 174.175 38.4914C173.255 37.5714 172.795 36.3047 172.795 34.6914C172.795 33.6247 172.995 32.7047 173.395 31.9314C173.808 31.1447 174.375 30.5381 175.095 30.1114C175.815 29.6714 176.655 29.4514 177.615 29.4514C178.535 29.4514 179.315 29.6514 179.955 30.0514C180.595 30.4381 181.082 30.9914 181.415 31.7114C181.748 32.4314 181.915 33.2847 181.915 34.2714V34.8714H174.215V33.7914H180.675L180.335 34.0514C180.335 33.0114 180.102 32.2047 179.635 31.6314C179.182 31.0581 178.508 30.7714 177.615 30.7714C176.642 30.7714 175.888 31.1114 175.355 31.7914C174.822 32.4581 174.555 33.3714 174.555 34.5314V34.7114C174.555 35.9381 174.855 36.8647 175.455 37.4914C176.068 38.1181 176.915 38.4314 177.995 38.4314C178.595 38.4314 179.155 38.3447 179.675 38.1714C180.195 37.9981 180.695 37.7114 181.175 37.3114L181.775 38.5714C181.322 38.9847 180.755 39.3047 180.075 39.5314C179.408 39.7581 178.708 39.8714 177.975 39.8714ZM188.133 39.8714C187.253 39.8714 186.48 39.6647 185.813 39.2514C185.147 38.8381 184.627 38.2381 184.253 37.4514C183.88 36.6647 183.693 35.7314 183.693 34.6514C183.693 33.5714 183.88 32.6447 184.253 31.8714C184.627 31.0847 185.147 30.4847 185.813 30.0714C186.48 29.6581 187.253 29.4514 188.133 29.4514C189.013 29.4514 189.78 29.6714 190.433 30.1114C191.1 30.5514 191.547 31.1581 191.773 31.9314H191.533V24.9714H193.353V39.6914H191.553V37.3514H191.773C191.56 38.1381 191.12 38.7581 190.453 39.2114C189.8 39.6514 189.027 39.8714 188.133 39.8714ZM188.553 38.4314C189.46 38.4314 190.187 38.1114 190.733 37.4714C191.293 36.8314 191.573 35.8914 191.573 34.6514C191.573 33.4114 191.293 32.4781 190.733 31.8514C190.187 31.2247 189.46 30.9114 188.553 30.9114C187.647 30.9114 186.913 31.2247 186.353 31.8514C185.807 32.4781 185.533 33.4114 185.533 34.6514C185.533 35.8914 185.807 36.8314 186.353 37.4714C186.913 38.1114 187.647 38.4314 188.553 38.4314ZM201.876 39.6914V25.5914H207.716C209.223 25.5914 210.383 25.9447 211.196 26.6514C212.023 27.3581 212.436 28.3447 212.436 29.6114C212.436 30.4514 212.25 31.1647 211.876 31.7514C211.503 32.3381 210.976 32.7847 210.296 33.0914C209.63 33.3981 208.85 33.5514 207.956 33.5514L208.296 33.2714H208.776C209.323 33.2714 209.81 33.4114 210.236 33.6914C210.663 33.9581 211.016 34.3981 211.296 35.0114L213.296 39.6914H211.236L209.296 35.0514C209.07 34.4781 208.736 34.1047 208.296 33.9314C207.87 33.7581 207.33 33.6714 206.676 33.6714H203.736V39.6914H201.876ZM203.736 32.2314H207.436C208.463 32.2314 209.243 32.0114 209.776 31.5714C210.323 31.1314 210.596 30.4914 210.596 29.6514C210.596 28.8247 210.323 28.1981 209.776 27.7714C209.243 27.3314 208.463 27.1114 207.436 27.1114H203.736V32.2314ZM219.928 39.8714C218.328 39.8714 217.061 39.4114 216.128 38.4914C215.208 37.5714 214.748 36.3047 214.748 34.6914C214.748 33.6247 214.948 32.7047 215.348 31.9314C215.761 31.1447 216.328 30.5381 217.048 30.1114C217.768 29.6714 218.608 29.4514 219.568 29.4514C220.488 29.4514 221.268 29.6514 221.908 30.0514C222.548 30.4381 223.035 30.9914 223.368 31.7114C223.701 32.4314 223.868 33.2847 223.868 34.2714V34.8714H216.168V33.7914H222.628L222.288 34.0514C222.288 33.0114 222.055 32.2047 221.588 31.6314C221.135 31.0581 220.461 30.7714 219.568 30.7714C218.595 30.7714 217.841 31.1114 217.308 31.7914C216.775 32.4581 216.508 33.3714 216.508 34.5314V34.7114C216.508 35.9381 216.808 36.8647 217.408 37.4914C218.021 38.1181 218.868 38.4314 219.948 38.4314C220.548 38.4314 221.108 38.3447 221.628 38.1714C222.148 37.9981 222.648 37.7114 223.128 37.3114L223.728 38.5714C223.275 38.9847 222.708 39.3047 222.028 39.5314C221.361 39.7581 220.661 39.8714 219.928 39.8714ZM233.487 44.0114V37.3914H233.707C233.493 38.1514 233.053 38.7581 232.387 39.2114C231.733 39.6514 230.967 39.8714 230.087 39.8714C229.207 39.8714 228.433 39.6647 227.767 39.2514C227.1 38.8381 226.58 38.2381 226.207 37.4514C225.833 36.6647 225.647 35.7314 225.647 34.6514C225.647 33.5714 225.833 32.6447 226.207 31.8714C226.58 31.0847 227.1 30.4847 227.767 30.0714C228.433 29.6581 229.207 29.4514 230.087 29.4514C230.98 29.4514 231.753 29.6781 232.407 30.1314C233.073 30.5714 233.513 31.1781 233.727 31.9514H233.487L233.707 29.6314H235.467C235.427 30.0314 235.387 30.4314 235.347 30.8314C235.32 31.2314 235.307 31.6247 235.307 32.0114V44.0114H233.487ZM230.507 38.4314C231.413 38.4314 232.14 38.1114 232.687 37.4714C233.233 36.8314 233.507 35.8914 233.507 34.6514C233.507 33.4114 233.233 32.4781 232.687 31.8514C232.14 31.2247 231.413 30.9114 230.507 30.9114C229.6 30.9114 228.867 31.2247 228.307 31.8514C227.76 32.4781 227.487 33.4114 227.487 34.6514C227.487 35.8914 227.76 36.8314 228.307 37.4714C228.853 38.1114 229.587 38.4314 230.507 38.4314ZM241.936 39.8714C240.723 39.8714 239.809 39.5447 239.196 38.8914C238.596 38.2381 238.296 37.2314 238.296 35.8714V29.6314H240.116V35.8314C240.116 36.7114 240.296 37.3581 240.656 37.7714C241.016 38.1847 241.576 38.3914 242.336 38.3914C243.163 38.3914 243.829 38.1181 244.336 37.5714C244.856 37.0114 245.116 36.2714 245.116 35.3514V29.6314H246.936V39.6914H245.176V37.4714H245.436C245.156 38.2314 244.709 38.8247 244.096 39.2514C243.483 39.6647 242.763 39.8714 241.936 39.8714ZM254.577 39.8714C252.977 39.8714 251.71 39.4114 250.777 38.4914C249.857 37.5714 249.397 36.3047 249.397 34.6914C249.397 33.6247 249.597 32.7047 249.997 31.9314C250.41 31.1447 250.977 30.5381 251.697 30.1114C252.417 29.6714 253.257 29.4514 254.217 29.4514C255.137 29.4514 255.917 29.6514 256.557 30.0514C257.197 30.4381 257.683 30.9914 258.017 31.7114C258.35 32.4314 258.517 33.2847 258.517 34.2714V34.8714H250.817V33.7914H257.277L256.937 34.0514C256.937 33.0114 256.703 32.2047 256.237 31.6314C255.783 31.0581 255.11 30.7714 254.217 30.7714C253.243 30.7714 252.49 31.1114 251.957 31.7914C251.423 32.4581 251.157 33.3714 251.157 34.5314V34.7114C251.157 35.9381 251.457 36.8647 252.057 37.4914C252.67 38.1181 253.517 38.4314 254.597 38.4314C255.197 38.4314 255.757 38.3447 256.277 38.1714C256.797 37.9981 257.297 37.7114 257.777 37.3114L258.377 38.5714C257.923 38.9847 257.357 39.3047 256.677 39.5314C256.01 39.7581 255.31 39.8714 254.577 39.8714ZM264.295 39.8714C263.482 39.8714 262.722 39.7647 262.015 39.5514C261.322 39.3381 260.748 39.0314 260.295 38.6314L260.875 37.3714C261.368 37.7447 261.908 38.0314 262.495 38.2314C263.095 38.4181 263.708 38.5114 264.335 38.5114C265.095 38.5114 265.668 38.3714 266.055 38.0914C266.455 37.8114 266.655 37.4381 266.655 36.9714C266.655 36.5981 266.528 36.2981 266.275 36.0714C266.022 35.8447 265.622 35.6781 265.075 35.5714L263.175 35.1914C262.322 34.9914 261.675 34.6714 261.235 34.2314C260.808 33.7781 260.595 33.1981 260.595 32.4914C260.595 31.9047 260.755 31.3847 261.075 30.9314C261.395 30.4647 261.848 30.1047 262.435 29.8514C263.035 29.5847 263.735 29.4514 264.535 29.4514C265.268 29.4514 265.948 29.5581 266.575 29.7714C267.215 29.9847 267.742 30.2981 268.155 30.7114L267.555 31.9314C267.142 31.5714 266.675 31.2981 266.155 31.1114C265.648 30.9114 265.128 30.8114 264.595 30.8114C263.822 30.8114 263.248 30.9647 262.875 31.2714C262.502 31.5647 262.315 31.9514 262.315 32.4314C262.315 32.7914 262.428 33.0914 262.655 33.3314C262.882 33.5581 263.248 33.7314 263.755 33.8514L265.655 34.2314C266.548 34.4181 267.222 34.7247 267.675 35.1514C268.128 35.5781 268.355 36.1447 268.355 36.8514C268.355 37.4781 268.182 38.0181 267.835 38.4714C267.502 38.9247 267.028 39.2714 266.415 39.5114C265.815 39.7514 265.108 39.8714 264.295 39.8714ZM274.499 39.8714C273.445 39.8714 272.645 39.5847 272.099 39.0114C271.565 38.4247 271.299 37.5447 271.299 36.3714V31.0314H269.339V29.6314H271.299V26.9314L273.119 26.4314V29.6314H275.959V31.0314H273.119V36.2114C273.119 36.9847 273.252 37.5381 273.519 37.8714C273.799 38.1914 274.199 38.3514 274.719 38.3514C274.985 38.3514 275.212 38.3314 275.399 38.2914C275.599 38.2381 275.779 38.1781 275.939 38.1114V39.6114C275.739 39.6914 275.505 39.7514 275.239 39.7914C274.985 39.8447 274.739 39.8714 274.499 39.8714ZM281.268 39.8714C280.454 39.8714 279.694 39.7647 278.988 39.5514C278.294 39.3381 277.721 39.0314 277.268 38.6314L277.848 37.3714C278.341 37.7447 278.881 38.0314 279.468 38.2314C280.068 38.4181 280.681 38.5114 281.308 38.5114C282.068 38.5114 282.641 38.3714 283.028 38.0914C283.428 37.8114 283.628 37.4381 283.628 36.9714C283.628 36.5981 283.501 36.2981 283.248 36.0714C282.994 35.8447 282.594 35.6781 282.048 35.5714L280.148 35.1914C279.294 34.9914 278.648 34.6714 278.208 34.2314C277.781 33.7781 277.568 33.1981 277.568 32.4914C277.568 31.9047 277.728 31.3847 278.048 30.9314C278.368 30.4647 278.821 30.1047 279.408 29.8514C280.008 29.5847 280.708 29.4514 281.508 29.4514C282.241 29.4514 282.921 29.5581 283.548 29.7714C284.188 29.9847 284.714 30.2981 285.128 30.7114L284.528 31.9314C284.114 31.5714 283.648 31.2981 283.128 31.1114C282.621 30.9114 282.101 30.8114 281.568 30.8114C280.794 30.8114 280.221 30.9647 279.848 31.2714C279.474 31.5647 279.288 31.9514 279.288 32.4314C279.288 32.7914 279.401 33.0914 279.628 33.3314C279.854 33.5581 280.221 33.7314 280.728 33.8514L282.628 34.2314C283.521 34.4181 284.194 34.7247 284.648 35.1514C285.101 35.5781 285.328 36.1447 285.328 36.8514C285.328 37.4781 285.154 38.0181 284.808 38.4714C284.474 38.9247 284.001 39.2714 283.388 39.5114C282.788 39.7514 282.081 39.8714 281.268 39.8714Z" fill="white"/>
<path d="M229.034 144.645V139.053H237.5V113.446H240.74L229.87 119.926V113.551L239.433 107.803H244.241V139.053H252.184V144.645H229.034ZM267.476 145.167C265.49 145.167 263.521 144.801 261.57 144.07C259.62 143.303 257.947 142.275 256.554 140.986L258.801 135.97C260.09 137.154 261.483 138.043 262.981 138.635C264.48 139.227 265.995 139.523 267.528 139.523C270.629 139.523 272.998 138.461 274.635 136.335C276.307 134.21 277.143 131.04 277.143 126.825V122.905H277.771C277.527 124.647 276.934 126.163 275.994 127.452C275.053 128.741 273.869 129.734 272.44 130.43C271.047 131.092 269.479 131.423 267.737 131.423C265.612 131.423 263.696 130.918 261.989 129.908C260.316 128.897 258.992 127.504 258.017 125.727C257.076 123.915 256.606 121.877 256.606 119.613C256.606 117.209 257.129 115.084 258.174 113.237C259.254 111.391 260.717 109.945 262.563 108.9C264.41 107.82 266.535 107.28 268.939 107.28C273.607 107.28 277.196 108.883 279.704 112.088C282.247 115.258 283.519 119.752 283.519 125.57C283.519 129.716 282.874 133.252 281.585 136.179C280.331 139.105 278.502 141.335 276.098 142.868C273.694 144.401 270.82 145.167 267.476 145.167ZM269.357 126.093C270.646 126.093 271.778 125.814 272.754 125.257C273.729 124.699 274.496 123.915 275.053 122.905C275.611 121.86 275.889 120.675 275.889 119.352C275.889 117.993 275.611 116.808 275.053 115.798C274.496 114.788 273.729 114.004 272.754 113.446C271.778 112.854 270.646 112.558 269.357 112.558C268.068 112.558 266.936 112.854 265.96 113.446C264.985 114.004 264.218 114.788 263.661 115.798C263.138 116.808 262.877 117.993 262.877 119.352C262.877 120.675 263.138 121.86 263.661 122.905C264.218 123.915 264.985 124.699 265.96 125.257C266.936 125.814 268.068 126.093 269.357 126.093Z" fill="white"/>
<path d="M69.3218 121.672C66.7088 119.594 63.225 118.172 59.5959 117.625C57.9992 117.297 56.4024 117.078 54.8056 116.968C58.8701 113.358 58.1443 107.889 53.354 104.825C48.5637 101.762 41.3056 102.309 37.2411 105.919C33.1766 109.529 33.9024 114.999 38.6927 118.062C39.5637 118.609 40.4347 119.047 41.3056 119.266V121.672L38.983 120.031C36.9508 118.5 33.6121 118.5 31.4347 120.031C29.4024 121.563 29.2572 123.97 31.2895 125.501L37.9669 131.409C38.2572 132.94 38.983 134.362 39.9992 135.675C40.725 136.66 41.7411 137.644 42.7572 138.41V140.489C42.7572 141.145 43.3379 141.582 44.2088 141.582H63.9508C64.6766 141.582 65.4024 141.035 65.4024 140.489V137.644C68.1605 135.128 69.6121 131.956 69.6121 128.783V122.438C69.7572 122.001 69.6121 121.782 69.3218 121.672ZM37.3863 111.389C37.3863 107.779 41.3056 104.935 46.0959 105.044C50.8863 105.044 54.6605 107.998 54.5153 111.608C54.5153 113.577 53.354 115.327 51.3218 116.531V111.061C51.2476 110.113 50.6951 109.222 49.7774 108.571C48.8597 107.92 47.6465 107.559 46.3863 107.56C43.7734 107.451 41.4508 109.092 41.4508 111.061V116.75C38.983 115.656 37.5314 113.577 37.3863 111.389ZM66.854 128.674C66.9992 131.518 65.6927 134.253 63.225 136.441C62.9347 136.66 62.6443 136.878 62.6443 137.207V139.504H45.8056V137.972C45.8056 137.644 45.5153 137.316 45.225 137.097C44.2088 136.441 43.3379 135.675 42.6121 134.691C41.7411 133.597 41.1605 132.284 40.8701 130.971C40.8701 130.752 40.725 130.533 40.5798 130.315L33.6121 124.079C33.1766 123.751 32.8863 123.313 32.8863 122.766C32.8863 122.329 33.1766 121.782 33.6121 121.454C34.6282 120.797 36.0798 120.797 37.0959 121.454L41.3056 124.626V127.908L44.0637 126.814V111.061C44.2088 110.295 45.0798 109.639 46.2411 109.748C47.2572 109.748 48.2734 110.295 48.2734 111.061V123.642L51.1766 124.079V119.047C51.3218 118.938 51.4669 118.938 51.6121 118.828C52.6282 118.828 53.6443 118.938 54.6605 119.047V124.626L56.983 124.954V119.266L58.725 119.594C59.4508 119.703 60.1766 119.922 60.9024 120.141V125.611L63.225 125.939V120.907C64.5314 121.344 65.6927 122.001 66.7089 122.766L66.854 128.674Z" fill="white"/>
</g>
<rect x="1.53049" y="0.725806" width="319.355" height="161.548" rx="6.53226" stroke="#D8D8D8" stroke-width="1.45161"/>
<defs>
<clipPath id="clip0_2966_32140">
<rect x="0.804688" width="320.806" height="163" rx="7.25806" fill="white"/>
</clipPath>
</defs>
</svg>
